# xmcd CD database file
#
# Track frame offsets:
#	150
#	13832
#	27387
#	40462
#	61377
#	81717
#	102010
#	116492
#	130477
#	152555
#	167652
#	180997
#	194397
#	212330
#	228207
#	240527
#	252837
#
# Disc length: 3554 seconds
#
# Revision: 0
# Processed by: cddbd v1.4PL0 Copyright (c) Steve Scherf et al.
# Submitted via: CDex 1.50beta9
#
DISCID=de0de011
DTITLE=Jack Teagarden - Complete Capitol Fifties Sessions, CD #1
DYEAR=1996
DGENRE=Jazz
TTITLE0=Struttin' With Some Barbecue
TTITLE1=Muskrat Ramble
TTITLE2=New Orleans 
TTITLE3=Basin Street Blues
TTITLE4=St. James Infirmary
TTITLE5=That's a Plenty 
TTITLE6=I Want a Big Butter and Egg Man 
TTITLE7=Fidgety Feet
TTITLE8=Royal Garden Blues
TTITLE9=I Guess I'll Have to Change My Plans 
TTITLE10=Indiana
TTITLE11=Indiana (Mono Take)
TTITLE12=It's Wonderful 
TTITLE13=Way Down Yonder in New Orleans 
TTITLE14='S Wonderful
TTITLE15='S Wonderful [Mono Take)
TTITLE16=Baby, Won't You Please Come Home 
EXTD=YEAR: 1996
EXTT0=
EXTT1=
EXTT2=
EXTT3=
EXTT4=
EXTT5=
EXTT6=
EXTT7=
EXTT8=
EXTT9=
EXTT10=
EXTT11=
EXTT12=
EXTT13=
EXTT14=
EXTT15=
EXTT16=
PLAYORDER=
